<svg xmlns="http://www.w3.org/2000/svg" width="69.66" height="66.758" viewBox="0 0 69.66 66.758">
  <path id="github" d="M34.83.5C15.586.5,0,15.825,0,34.726A34.283,34.283,0,0,0,23.815,67.2c1.741.322,2.38-.737,2.38-1.646,0-.813-.029-2.966-.044-5.819C16.463,61.8,14.42,55.142,14.42,55.142c-1.585-3.95-3.875-5.007-3.875-5.007-3.155-2.122.244-2.078.244-2.078,3.5.238,5.335,3.527,5.335,3.527,3.106,5.233,8.153,3.721,10.144,2.847a7.247,7.247,0,0,1,2.206-4.577c-7.735-.856-15.865-3.8-15.865-16.913a13.076,13.076,0,0,1,3.585-9.183c-.392-.865-1.567-4.345.3-9.059,0,0,2.917-.917,9.578,3.509a33.395,33.395,0,0,1,17.415,0c6.618-4.426,9.535-3.509,9.535-3.509a12.306,12.306,0,0,1,.348,9.059,13.129,13.129,0,0,1,3.57,9.183c0,13.148-8.141,16.042-15.891,16.884,1.219,1.027,2.351,3.126,2.351,6.333,0,4.58-.044,8.26-.044,9.372,0,.9.61,1.968,2.395,1.625a34.179,34.179,0,0,0,23.9-32.429C69.66,15.825,54.065.5,34.83.5Z" transform="translate(0 -0.5)"/>
</svg>
