<svg xmlns="http://www.w3.org/2000/svg" xmlns:xlink="http://www.w3.org/1999/xlink" width="24.067" height="24.074" viewBox="0 0 24.067 24.074">
  <defs>
    <linearGradient id="linear-gradient" x1="-1.539" y1="-3.018" x2="-1.1" y2="-3.49" gradientUnits="objectBoundingBox">
      <stop offset="0"/>
      <stop offset="0.5" stop-color="#ff543e"/>
      <stop offset="1" stop-color="#c837ab"/>
    </linearGradient>
  </defs>
  <g id="instagram_1_" data-name="instagram (1)" transform="translate(0.069 0.039)">
    <path id="Subtraction_1" data-name="Subtraction 1" d="M-7698.007-2578.965a69.836,69.836,0,0,1-8.115-.289,4.6,4.6,0,0,1-3.543-3.507,21.7,21.7,0,0,1-.371-6.043c.016-.643.036-1.441.036-2.2,0-1-.009-1.894-.019-2.73-.046-4.235-.065-5.987,1.519-7.631,1.4-1.453,2.861-1.672,7.163-1.672.77,0,1.613.007,2.59.015h.084l.44,0c1.243.01,2.6.019,4.132.019a22,22,0,0,1,3.5.105l.035,0a4.981,4.981,0,0,1,2.91,1.368,5.891,5.891,0,0,1,1.616,3.723c.029.384.029,13.209,0,13.587a5.152,5.152,0,0,1-3.841,4.956A69.792,69.792,0,0,1-7698.007-2578.965Zm0-3.172c.314,0,.647,0,.914.006s.595.006.905.006c2.834,0,5.47-.235,6.576-3.069a14.184,14.184,0,0,0,.466-4.922c0-.286,0-.579,0-.884,0-.272,0-.536,0-.793v-.169c.016-2.947.027-4.894-1.492-6.412-1.385-1.385-3.217-1.495-5.468-1.495-.287,0-.583,0-.89,0-.29,0-.651,0-1.013,0-.267,0-.533,0-.8,0h-.078c-.286,0-.569,0-.85,0-3,0-5.564.231-6.669,3.066a14.134,14.134,0,0,0-.466,4.927q0,.423,0,.877,0,.369,0,.732a15.622,15.622,0,0,0,.466,5.073c1.1,2.835,3.676,3.066,6.677,3.066.28,0,.563,0,.848,0h.085C-7698.528-2582.135-7698.267-2582.137-7698-2582.137Zm2.005-1.586c-.315,0-.642,0-.957-.007h-.03c-.33,0-.671-.007-1.017-.007-7.059,0-7.263-.2-7.263-7.267,0-3.624.147-5.394,1.018-6.309s2.38-.951,5.449-.954h.141c.416,0,.809,0,1.189-.007h.095c.443,0,.841-.008,1.219-.008,2.254,0,3.546.153,4.347.992,1.2,1.251,1.28,4.056,1.015,9.868C-7690.946-2583.995-7693.143-2583.722-7696-2583.722Zm-2-11.827a4.555,4.555,0,0,0-4.55,4.55,4.556,4.556,0,0,0,4.55,4.552,4.555,4.555,0,0,0,4.548-4.552A4.554,4.554,0,0,0-7698-2595.55Zm4.729-1.244a1.065,1.065,0,0,0-1.062,1.064,1.064,1.064,0,0,0,1.063,1.063,1.064,1.064,0,0,0,1.063-1.062A1.065,1.065,0,0,0-7693.272-2596.794Zm-4.729,8.749a2.822,2.822,0,0,1-2.931-2.956,3.055,3.055,0,0,1,.732-2.03,2.832,2.832,0,0,1,2.2-.922,2.829,2.829,0,0,1,2.2.924,3.056,3.056,0,0,1,.732,2.031A2.82,2.82,0,0,1-7698-2588.045Z" transform="translate(7710 2603)" fill="url(#linear-gradient)"/>
  </g>
</svg>
