<svg xmlns="http://www.w3.org/2000/svg" width="66.758" height="66.758" viewBox="0 0 66.758 66.758">
  <path id="linkedin" d="M61.944,0H4.815A4.814,4.814,0,0,0,0,4.815V61.943a4.814,4.814,0,0,0,4.815,4.815H61.944a4.814,4.814,0,0,0,4.815-4.815V4.815A4.814,4.814,0,0,0,61.944,0ZM23.68,50.46H15.55V26H23.68Zm-4.064-27.8h-.053a4.208,4.208,0,0,1-4.492-4.225c0-2.4,1.818-4.226,4.6-4.226a4.225,4.225,0,0,1,4.545,4.226c0,2.347-1.764,4.225-4.6,4.225Zm33.377,27.8H44.864V37.376c0-3.288-1.177-5.531-4.118-5.531a4.45,4.45,0,0,0-4.171,2.973,5.567,5.567,0,0,0-.267,1.984V50.46H28.179s.106-22.163,0-24.457h8.129v3.463a8.071,8.071,0,0,1,7.326-4.037c5.348,0,9.359,3.5,9.359,11.008Zm0,0" transform="translate(0)"/>
</svg>
